<svg version="1.0" xmlns="http://www.w3.org/2000/svg"
 width="399.000000pt" height="229.000000pt" viewBox="0 0 399.000000 229.000000"
 preserveAspectRatio="xMidYMid meet">

<g transform="translate(0.000000,229.000000) scale(0.100000,-0.100000)"
fill="#000000" stroke="none">
<path d="M2628 1990 c-124 -39 -348 -157 -348 -182 0 -5 13 -8 29 -8 41 0 253
-37 344 -61 44 -11 83 -21 89 -22 9 -2 11 197 3 263 -2 14 -4 28 -4 33 -1 11
-19 8 -113 -23z"/>
<path d="M1336 1868 c-3 -72 -5 -132 -4 -134 2 -1 47 8 100 21 54 13 152 31
219 39 68 9 124 18 126 20 7 6 -108 72 -192 111 -72 33 -202 75 -231 75 -7 0
-13 -45 -18 -132z"/>
<path d="M2941 1728 c0 -49 3 -90 9 -93 12 -7 12 56 0 130 -7 46 -7 43 -9 -37z"/>
<path d="M1133 1715 c0 -27 2 -38 4 -22 2 15 2 37 0 50 -2 12 -4 0 -4 -28z"/>
<path d="M1780 1730 c-258 -32 -383 -57 -550 -112 -270 -88 -465 -217 -568
-377 -94 -144 -82 -322 29 -463 79 -99 255 -227 392 -283 59 -24 43 -10 -40
36 -105 58 -210 160 -254 246 -32 62 -34 74 -34 162 0 85 3 102 29 154 15 32
56 88 89 123 64 69 206 169 219 156 4 -4 -3 -127 -16 -272 -19 -209 -21 -268
-12 -278 7 -7 104 -46 215 -87 226 -82 369 -149 481 -224 106 -71 129 -96 194
-211 32 -56 60 -100 62 -98 2 2 -5 267 -16 589 -11 321 -20 628 -20 682 l0 97
66 0 67 0 -7 -157 c-3 -87 -11 -311 -16 -498 -5 -187 -12 -421 -15 -520 l-6
-180 65 109 c66 112 95 142 206 214 90 58 235 126 395 186 83 31 181 68 218
83 38 14 71 31 74 38 2 8 -3 100 -11 207 -23 267 -22 261 -10 265 22 7 169
-143 205 -209 33 -60 34 -67 34 -168 0 -101 -1 -108 -34 -168 -43 -78 -163
-194 -250 -241 -34 -18 -60 -35 -57 -38 15 -15 257 137 347 219 37 34 103 127
122 173 99 234 -46 476 -389 648 -118 59 -283 114 -439 146 -254 52 -579 73
-765 51z m-467 -267 c3 -5 0 -106 -5 -226 -9 -206 -9 -219 9 -239 10 -11 80
-65 156 -120 140 -102 247 -200 281 -258 22 -38 28 -41 -109 51 -111 75 -281
163 -413 214 l-87 33 -3 245 -2 245 72 31 c76 32 94 36 101 24z m1574 -72 l59
-29 -1 -212 0 -212 -85 -32 c-158 -62 -357 -169 -477 -258 -60 -44 -76 -44
-48 -1 35 54 142 149 281 250 77 55 146 108 153 117 11 13 13 54 7 211 -4 107
-5 199 -1 205 7 11 29 3 112 -39z"/>
</g>
</svg>
